<?xml version="1.0" standalone="no"?><!DOCTYPE svg PUBLIC "-//W3C//DTD SVG 1.1//EN" "http://www.w3.org/Graphics/SVG/1.1/DTD/svg11.dtd"><svg class="icon" width="200px" height="200.00px" viewBox="0 0 1024 1024" version="1.1" xmlns="http://www.w3.org/2000/svg"><path fill="#ffffff" d="M512 463.786667c-249.386667 0-452.266667 138.837333-452.266667 309.546666a140.8 140.8 0 0 0 38.4 104.576c47.232 46.592 131.157333 53.888 238.122667 53.888 23.466667 0 48-0.341333 73.557333-0.725333 55.253333-0.768 116.864-0.853333 173.909334 0 150.186667 2.133333 279.893333 3.882667 342.528-57.856a134.485333 134.485333 0 0 0 38.058666-99.84C964.266667 602.666667 761.386667 463.786667 512 463.786667z m378.282667 372.949333c-47.36 46.933333-167.210667 45.098667-305.834667 43.136-28.544-0.384-57.941333-0.810667-87.765333-0.810667s-59.733333 0.426667-87.552 0.810667c-124.672 1.834667-232.618667 3.370667-274.986667-38.4a90.794667 90.794667 0 0 1-23.125333-68.266667c0-76.8 52.138667-145.621333 134.741333-192.981333q-4.821333 9.642667-8.533333 19.626667a266.154667 266.154667 0 0 0-17.450667 111.488 25.6 25.6 0 0 0 25.6 24.362666h1.28a25.6 25.6 0 0 0 24.32-26.794666A215.296 215.296 0 0 1 284.586667 618.666667a213.034667 213.034667 0 0 1 54.656-78.506667 574.464 574.464 0 0 1 127.189333-23.552 254.122667 254.122667 0 0 0-52.992 83.413333 266.069333 266.069333 0 0 0-17.92 111.488 25.6 25.6 0 0 0 25.6 24.362667h1.28a25.6 25.6 0 0 0 24.32-26.794667 215.765333 215.765333 0 0 1 14.464-90.368 221.866667 221.866667 0 0 1 84.949333-102.784 567.04 567.04 0 0 1 163.712 32.725334 258.176 258.176 0 0 0-77.952 77.013333 266.752 266.752 0 0 0-40.064 105.685333 25.6 25.6 0 0 0 21.333334 29.354667 24.96 24.96 0 0 0 4.266666 0.341333 25.6 25.6 0 0 0 25.216-21.333333 213.333333 213.333333 0 0 1 32.341334-85.76 216.234667 216.234667 0 0 1 93.866666-78.848c88.277333 47.445333 144.512 118.784 144.512 198.4a84.309333 84.309333 0 0 1-23.082666 63.232zM316.757333 206.549333a121.770667 121.770667 0 0 1 25.002667-103.765333 25.6 25.6 0 1 1 41.472 29.866667 76.074667 76.074667 0 0 0-17.066667 59.733333 90.752 90.752 0 0 0 20.266667 29.866667 169.429333 169.429333 0 0 1 25.344 35.285333 106.666667 106.666667 0 0 1 4.522667 78.421333 267.178667 267.178667 0 0 1-29.866667 62.165334 25.6 25.6 0 0 1-43.904-26.325334A226.688 226.688 0 0 0 366.933333 321.962667a58.069333 58.069333 0 0 0-1.322666-41.344A127.658667 127.658667 0 0 0 347.605333 256a130.901333 130.901333 0 0 1-30.848-49.450667z m147.882667 0a121.770667 121.770667 0 0 1 25.002667-103.765333 25.6 25.6 0 1 1 41.472 29.866667 76.074667 76.074667 0 0 0-17.066667 59.733333 90.624 90.624 0 0 0 20.266667 29.866667 168.192 168.192 0 0 1 25.386666 35.285333 106.666667 106.666667 0 0 1 4.522667 78.421333 270.464 270.464 0 0 1-29.866667 62.208 25.6 25.6 0 0 1-43.861333-26.368 226.474667 226.474667 0 0 0 24.832-50.304 57.941333 57.941333 0 0 0-1.322667-41.301333A127.658667 127.658667 0 0 0 495.530667 256a130.688 130.688 0 0 1-30.848-49.450667z m141.354667 0a121.770667 121.770667 0 0 1 25.002666-103.765333 25.6 25.6 0 1 1 41.472 29.866667 76.074667 76.074667 0 0 0-17.066666 59.733333 90.624 90.624 0 0 0 20.266666 29.866667 168.192 168.192 0 0 1 25.386667 35.285333 106.666667 106.666667 0 0 1 4.48 78.421333 267.178667 267.178667 0 0 1-29.866667 62.165334 25.6 25.6 0 0 1-44.202666-25.898667 226.688 226.688 0 0 0 24.832-50.261333 57.941333 57.941333 0 0 0-1.28-41.344A127.658667 127.658667 0 0 0 636.842667 256a130.688 130.688 0 0 1-30.976-49.450667z" /></svg>