<?xml version="1.0" standalone="no"?><!DOCTYPE svg PUBLIC "-//W3C//DTD SVG 1.1//EN" "http://www.w3.org/Graphics/SVG/1.1/DTD/svg11.dtd"><svg class="icon" width="200px" height="200.00px" viewBox="0 0 1024 1024" version="1.1" xmlns="http://www.w3.org/2000/svg"><path fill="#ffffff" d="M331.40224 175.0016c15.20128 16.70144 21.89824 32.1024 19.79904 45.9008-3.3024 22.59968-28.49792 37.60128-28.9024 37.80096a22.23616 22.23616 0 0 0-8.29952 30.19776 22.16448 22.16448 0 0 0 30.30016 8.40192c1.80224-0.9984 44.09856-25.40032 50.80064-69.49888 0.50176-3.2 0.79872-6.2976 0.90112-9.4976 0.79872-25.29792-10.39872-50.60096-33.50016-75.29984a22.528 22.528 0 0 0-3.70176-3.2c-0.19968-0.19968-22.90176-16.1024-24.69888-39.90016-1.30048-18.20672 9.40032-37.90848 31.80032-58.80832a22.16448 22.16448 0 0 0 0.9984-31.40096 22.16448 22.16448 0 0 0-31.40096-0.9984c-32.9984 30.80192-48.30208 62.8992-45.70112 95.20128 3.20512 39.30112 32.70144 64.39936 41.60512 71.10144z m150.59968 0c15.20128 16.70144 21.89824 32.1024 19.79904 45.9008-3.3024 22.59968-28.49792 37.60128-28.9024 37.80096a22.23616 22.23616 0 0 0-8.29952 30.19776 22.16448 22.16448 0 0 0 30.30016 8.40192c1.80224-0.9984 44.09856-25.40032 50.80064-69.49888 0.50176-3.2 0.79872-6.2976 0.90112-9.4976 0.79872-25.29792-10.39872-50.60096-33.50016-75.29984a22.528 22.528 0 0 0-3.70176-3.2c-0.19968-0.19968-22.90176-16.1024-24.69888-39.90016-1.30048-18.2016 9.40032-37.89824 31.80032-58.79808a22.16448 22.16448 0 0 0 0.9984-31.40096 22.16448 22.16448 0 0 0-31.40096-0.9984c-32.9984 30.80192-48.30208 62.8992-45.70112 95.20128 3.20512 39.29088 32.70144 64.38912 41.60512 71.0912z m396.49792 241.30048c-30.30016 0-57.99936 11.60192-78.8992 30.49984V372.39808c0-10.99776-17.80224-19.90144-28.8-19.90144H77.99808a19.8912 19.8912 0 0 0-19.90144 19.90144v218.5984c0 60.8 10.79808 115.3024 32.1024 162.0992 17.30048 37.89824 41.40032 70.70208 71.59808 97.59744 51.70176 45.9008 103.59808 58.50112 105.79968 58.99776 1.50016 0.30208 3.00032 0.50176 4.50048 0.50176h283.20256c1.19808 0 2.49856-0.1024 3.70176-0.39936 2.49856-0.50176 61.30176-11.89888 120.4992-56.40192 34.89792-26.30144 62.69952-58.7008 82.69824-96.30208 24.80128-46.69952 37.4016-101.2992 37.4016-162.40128v-54.09792c0.79872-2.2016 1.30048-4.59776 1.30048-6.99904 0-42.79808 34.80064-71.5008 77.59872-71.5008s71.5008 28.6976 71.5008 71.5008-40.20224 73.40032-83.70176 77.59872c-10.90048 1.1008-19.90144 8.89856-19.90144 19.90144s9.00096 19.00032 19.90144 19.90144c65.30048 5.49888 128.30208-52.70016 128.30208-117.4016 0.09728-64.5888-45.9008-118.78912-116.10112-117.28896z m-129.19808 174.39744c0 53.00224-10.5984 99.99872-31.60064 139.8016-16.70144 31.69792-40.00256 58.99776-69.20192 81.30048-45.70112 34.80064-92.40064 44.29824-101.4016 46.30016H286.30016c-8.80128-2.49856-37.80096-12.20096-75.89888-45.99808-25.6-22.70208-54.79936-50.49856-69.49888-82.60096-18.49856-40.69888-27.89888-88.69888-27.89888-142.60224V398.30016h636.29824v192.39936z m34.59584 376.09984H79.40096c-11.8016 0-21.2992 15.09888-21.2992 26.79808 0 11.8016 9.4976 24.69888 21.2992 24.69888h704.50176c11.8016 0 21.2992-14.69952 21.2992-26.50112s-9.6-24.99584-21.30432-24.99584z" /></svg>