<?xml version="1.0" standalone="no"?><!DOCTYPE svg PUBLIC "-//W3C//DTD SVG 1.1//EN" "http://www.w3.org/Graphics/SVG/1.1/DTD/svg11.dtd"><svg class="icon" width="64px" height="64.00px" viewBox="0 0 1024 1024" version="1.1" xmlns="http://www.w3.org/2000/svg"><path fill="#ffffff" d="M179.2 32h659.2c64 0 96 32 96 102.4v556.8c0 6.4 32 96 89.6 268.8 0 12.8-12.8 25.6-38.4 25.6H32c-19.2 6.4-32-6.4-32-25.6l89.6-275.2V121.6c0-38.4 19.2-64 51.2-76.8 12.8-6.4 25.6-12.8 38.4-12.8zM128 761.6h83.2c19.2 0 25.6 12.8 25.6 25.6 0 19.2-19.2 32-51.2 32H102.4c0 6.4 0 12.8-6.4 25.6h25.6c32 0 51.2 12.8 51.2 32-6.4 19.2-19.2 25.6-25.6 25.6h-64c0 6.4 0 12.8-6.4 25.6H960l-64-192H140.8c-6.4 0-12.8 6.4-12.8 25.6z m19.2-652.8v563.2h729.6V115.2c-6.4-19.2-12.8-25.6-25.6-25.6H172.8c-12.8 0-19.2 6.4-25.6 19.2zM332.8 320c12.8 0 25.6 12.8 25.6 25.6v160c-6.4 12.8-12.8 25.6-25.6 25.6h-6.4c-19.2 0-25.6-12.8-25.6-25.6V345.6c0-19.2 6.4-25.6 32-25.6z m115.2 51.2c19.2 6.4 32 12.8 32 25.6v102.4c-6.4 19.2-12.8 32-25.6 32H448c-19.2 0-25.6-12.8-25.6-38.4V409.6c0-25.6 12.8-38.4 25.6-38.4z m0 473.6h128c12.8 0 25.6 12.8 25.6 32-6.4 19.2-12.8 25.6-25.6 25.6H448c-19.2-6.4-25.6-12.8-25.6-25.6v-6.4c0-12.8 6.4-19.2 25.6-25.6z m121.6-550.4c25.6 0 32 6.4 32 25.6v185.6c-6.4 12.8-12.8 25.6-25.6 25.6h-12.8c-12.8-6.4-19.2-19.2-19.2-32V326.4c0-25.6 6.4-32 25.6-32z m121.6-57.6c19.2 0 32 12.8 32 32v236.8c-6.4 19.2-12.8 25.6-25.6 25.6h-6.4c-12.8 0-25.6-12.8-25.6-32V268.8c0-19.2 6.4-32 25.6-32z"  /></svg>