<?xml version="1.0" standalone="no"?><!DOCTYPE svg PUBLIC "-//W3C//DTD SVG 1.1//EN" "http://www.w3.org/Graphics/SVG/1.1/DTD/svg11.dtd"><svg class="icon" width="200px" height="200.00px" viewBox="0 0 1024 1024" version="1.1" xmlns="http://www.w3.org/2000/svg"><path fill="#515151" d="M213.333333 874.666667C130.986667 874.666667 64 807.68 64 725.333333 64 642.986667 130.986667 576 213.333333 576 295.68 576 362.666667 642.986667 362.666667 725.333333 362.666667 807.68 295.68 874.666667 213.333333 874.666667M213.333333 512C95.573333 512 0 607.573333 0 725.333333 0 843.093333 95.573333 938.666667 213.333333 938.666667 331.093333 938.666667 426.666667 843.093333 426.666667 725.333333 426.666667 607.573333 331.093333 512 213.333333 512M631.466667 426.666667 810.666667 426.666667 810.666667 349.866667 674.133333 349.866667 591.36 210.346667C578.986667 189.013333 554.666667 174.933333 529.066667 174.933333 509.013333 174.933333 490.666667 183.04 477.866667 196.266667L320 353.706667C306.773333 366.933333 298.666667 384 298.666667 405.333333 298.666667 432.213333 312.746667 454.826667 334.933333 468.053333L477.866667 554.666667 477.866667 768 554.666667 768 554.666667 490.666667 458.666667 420.266667 557.653333 320M810.666667 874.666667C728.32 874.666667 661.333333 807.68 661.333333 725.333333 661.333333 642.986667 728.32 576 810.666667 576 893.013333 576 960 642.986667 960 725.333333 960 807.68 893.013333 874.666667 810.666667 874.666667M810.666667 512C692.906667 512 597.333333 607.573333 597.333333 725.333333 597.333333 843.093333 692.906667 938.666667 810.666667 938.666667 928.426667 938.666667 1024 843.093333 1024 725.333333 1024 607.573333 928.426667 512 810.666667 512M682.666667 204.8C725.333333 204.8 759.466667 170.666667 759.466667 128 759.466667 85.333333 725.333333 51.2 682.666667 51.2 640 51.2 605.866667 85.333333 605.866667 128 605.866667 170.666667 640 204.8 682.666667 204.8Z" /></svg>