<?xml version="1.0" standalone="no"?><!DOCTYPE svg PUBLIC "-//W3C//DTD SVG 1.1//EN" "http://www.w3.org/Graphics/SVG/1.1/DTD/svg11.dtd"><svg class="icon" width="200px" height="200.00px" viewBox="0 0 1024 1024" version="1.1" xmlns="http://www.w3.org/2000/svg"><path d="M951.876 731.604s19.273-30.147 19.273-90.428c0-60.284 187.24-437.065-178.992-596.825C425.932-115.406-74.44 192.925 15.64 390.993c64.809 142.505 619.562 633.003 619.562 633.003s302.163-251.071 316.673-292.392z" fill="#D59758" /><path d="M981.923 359.162c0 171.876-256.004 237.808-449.985 402.927C342.699 923.174 81.956 531.042 81.956 359.162c0-126.613 201.466-311.212 449.982-311.212 248.52 0 449.985 139.336 449.985 311.212z" fill="#FFC68C" opacity=".35" /><path d="M835.19 301.168c0 117.049-162.934 118.3-306.443 211.938-141.738 92.48-306.436-94.885-306.436-211.938 0-63.476 137.197-211.938 306.436-211.938 169.246 0 306.444 94.89 306.444 211.938z" fill="#FFDCB8" opacity=".35" /><path d="M951.876 731.604s19.273-30.147 19.273-90.428c0-6.06 1.912-15.36 4.941-27.265L569.056 906.568l30.08 85.226C621.87 1012.21 635.2 1024 635.2 1024s302.167-251.075 316.677-292.396z" opacity=".1" /><path d="M635.203 1023.996s-35.798-87.418 0-201.965c35.802-114.539 63.335-352.677-256.087-521.47C59.698 131.765-24.772 293.33 15.641 409.077 81.746 598.423 65.2 755.723 65.2 755.723l570.002 268.273z" fill="#FFEEBA" /><path d="M565.271 945.564s-28.293-69.09 0-159.624c28.293-90.53 50.056-278.737-202.402-412.148C110.415 240.38 43.653 368.07 75.59 459.554c52.248 149.651 39.17 273.973 39.17 273.973l450.51 212.037z" fill="#FFF9E8" /></svg>