<?xml version="1.0" standalone="no"?><!DOCTYPE svg PUBLIC "-//W3C//DTD SVG 1.1//EN" "http://www.w3.org/Graphics/SVG/1.1/DTD/svg11.dtd"><svg class="icon" width="200px" height="200.00px" viewBox="0 0 1024 1024" version="1.1" xmlns="http://www.w3.org/2000/svg"><path fill="#515151" d="M941.63144 196.667752 412.087585 81.774385c-4.337059-0.935198-8.979575-1.412212-13.827123-1.412212-44.029625 0-105.030898 38.127626-118.194804 98.806706-3.621539 16.699666-4.642516 32.855369-3.793096 48.059136l-146.321879-7.772395c-1.004239-0.050212-2.023124-0.085779-3.060838-0.085779-44.726317 0-108.108474 50.084353-111.679801 117.343293-1.598415 30.202503 3.945824 57.957172 14.47151 79.809842-7.24517 14.846007-11.937897 32.533175-12.975611 52.362721L0.228046 779.254282c-3.299345 62.141503 29.505812 130.982121 72.497723 133.260489l585.289608 31.070752c0.732258 0.033475 1.462424 0.050212 2.194682 0.050212 31.836484 0 58.417448-36.920447 70.832359-81.408256l86.511048 18.775094c2.924848 0.629742 5.849695 0.935198 8.774543 0.935198 39.267856 0 78.228165-55.032324 90.507085-111.646326l65.899033-303.732235c4.11529-18.94456 4.931234-36.717507 2.857898-52.498712 16.291694-18.367122 29.319609-43.996151 35.849258-74.0794C1036.015307 272.669853 985.489508 206.174553 941.63144 196.667752zM670.363338 814.865033c-0.646479 12.05715-3.027364 23.248144-6.071465 32.941148-3.843308 12.245445-8.757805 22.005398-12.789408 27.363434l-567.144255-30.118816c-7.414635-9.37081-17.670431-34.642078-16.224744-62.15824l16.479989-310.3644c0.527226-9.881298 2.669603-18.911085 6.190718-26.120688l14.47151-29.641802-14.302044-29.710844c-3.468811-7.192865-9.098828-22.840172-7.822607-46.682491 1.581677-29.694107 32.907673-51.630463 43.84133-52.906684l137.564074 7.295382 73.213244 3.89352 329.055808 17.465399c10.730717 2.431096 39.573313 27.549637 37.991635 57.260481-0.935198 17.651601-5.696967 34.420309-13.06139 46.036012l-16.632717 26.239941 8.929363 29.744319c1.684193 5.611188 3.537852 15.220505 2.805594 29.114577l-14.62633 275.416866L670.363338 814.865033zM954.929244 325.610011c-3.740792 17.279196-11.121952 33.077138-20.254255 43.349672l-20.612016 23.231407 4.065078 30.79877c0.765733 5.799483 1.054451 15.578265-1.887133 29.183618l-65.91577 303.748973c-5.799483 26.700218-19.591039 48.17839-28.24842 56.511485l-82.498275-17.906846 15.203768-286.419565c1.020977-19.369269-1.004239-37.0397-5.577714-52.276942 13.145077-20.731269 21.904974-48.128178 23.536863-78.857906 3.657105-68.82388-56.869246-126.37308-101.681341-128.753964l-123.364546-6.548478c6.973188-9.881298 2.755382-27.449213-13.06139-27.449213-15.101251 0-19.540827 15.952763-13.860597 26.003526l-175.999248-9.337335c-1.292958-8.877059-1.717668-21.291969 1.751143-37.278207 6.104939-28.129167 38.926833-45.220068 51.716242-45.220068l0.069041 0 528.250896 114.623478C936.800629 267.125614 961.239216 296.547739 954.929244 325.610011zM367.394743 449.468308c21.938449 0 21.938449-34.012336 0-34.012336S345.473032 449.468308 367.394743 449.468308zM370.235904 537.339264c-21.938449 0-21.938449 34.012336 0 34.012336S392.174353 537.339264 370.235904 537.339264zM242.687027 613.86859c-21.938449 0-21.938449 34.012336 0 34.012336S264.625476 613.86859 242.687027 613.86859zM200.17213 486.319713c-21.938449 0-21.938449 34.012336 0 34.012336S222.110578 486.319713 200.17213 486.319713zM628.170634 560.007878c-21.938449 0-21.938449 34.012336 0 34.012336S650.092345 560.007878 628.170634 560.007878zM540.297586 741.415375c-6.326709 0-10.611464 2.958322-13.281067 6.989925-6.615428 9.93151-2.330672 27.022411 13.281067 27.022411 12.584376 0 17.703905-11.155427 15.850247-20.695702C554.75445 747.639567 549.634921 741.415375 540.297586 741.415375zM441.254466 729.799671c-2.397622-1.462424-5.136267-2.55035-8.655289-2.55035-0.613005 0-1.037714 0.271982-1.615152 0.322194-20.135002 1.784617-19.710292 33.690143 1.615152 33.690143C451.014418 761.261658 453.753063 737.486288 441.254466 729.799671zM500.621757 452.307377c-21.938449 0-21.938449 34.012336 0 34.012336S522.543469 452.307377 500.621757 452.307377zM517.628972 395.626426c21.938449 0 21.938449-34.012336 0-34.012336C495.690523 361.614089 495.690523 395.626426 517.628972 395.626426zM208.674691 330.424084c-21.938449 0-21.938449 34.012336 0 34.012336S230.613139 330.424084 208.674691 330.424084zM171.823286 718.74676c-21.938449 0-21.938449 34.012336 0 34.012336S193.759642 718.74676 171.823286 718.74676zM279.540524 778.268872c-21.938449 0-21.938449 34.012336 0 34.012336S301.462236 778.268872 279.540524 778.268872zM531.795025 596.861376c-21.938449 0-21.938449 34.012336 0 34.012336S553.733474 596.861376 531.795025 596.861376zM843.571637 324.760592c-21.938449 0-21.938449 34.012336 0 34.012336S865.510086 324.760592 843.571637 324.760592zM829.405584 446.643884c-21.938449 0-21.938449 34.012336 0 34.012336S851.344033 446.643884 829.405584 446.643884zM409.911733 183.045662c-21.938449 0-21.938449 34.012336 0 34.012336C431.850181 217.060091 431.848089 183.045662 409.911733 183.045662zM803.895809 613.86859c-21.938449 0-21.938449 34.012336 0 34.012336S825.834257 613.86859 803.895809 613.86859z" /></svg>