<?xml version="1.0" standalone="no"?><!DOCTYPE svg PUBLIC "-//W3C//DTD SVG 1.1//EN" "http://www.w3.org/Graphics/SVG/1.1/DTD/svg11.dtd"><svg class="icon" width="200px" height="200.00px" viewBox="0 0 1024 1024" version="1.1" xmlns="http://www.w3.org/2000/svg"><path d="M974.330759 931.662515l-42.668244 42.668244c-66.225655 66.225655-174.60867 66.225655-240.834325 0L49.669241 333.17181c-66.225655-66.225655-66.225655-174.60867 0-240.834325L92.337485 49.669241c66.225655-66.225655 174.60867-66.225655 240.834325 0L974.330759 690.82819c66.225655 66.225655 66.225655 174.60867 0 240.834325z" fill="#CBB292" /><path d="M181.250157 244.259137m-22.270742 0a22.270742 22.270742 0 1 0 44.541484 0 22.270742 22.270742 0 1 0-44.541484 0Z" fill="#ECF0F1" /><path d="M244.259137 181.250157m-22.270741 0a22.270742 22.270742 0 1 0 44.541483 0 22.270742 22.270742 0 1 0-44.541483 0Z" fill="#ECF0F1" /><path d="M244.259137 307.249196m-22.270741 0a22.270742 22.270742 0 1 0 44.541483 0 22.270742 22.270742 0 1 0-44.541483 0Z" fill="#ECF0F1" /><path d="M307.249196 244.259137m-22.270742 0a22.270742 22.270742 0 1 0 44.541484 0 22.270742 22.270742 0 1 0-44.541484 0Z" fill="#ECF0F1" /><path d="M732.493588 795.502568m-22.270742 0a22.270742 22.270742 0 1 0 44.541484 0 22.270742 22.270742 0 1 0-44.541484 0Z" fill="#ECF0F1" /><path d="M795.502568 732.493588m-22.270741 0a22.270742 22.270742 0 1 0 44.541483 0 22.270742 22.270742 0 1 0-44.541483 0Z" fill="#ECF0F1" /><path d="M795.502568 858.492627m-22.270741 0a22.270742 22.270742 0 1 0 44.541483 0 22.270742 22.270742 0 1 0-44.541483 0Z" fill="#ECF0F1" /><path d="M858.492627 795.502568m-22.270741 0a22.270742 22.270742 0 1 0 44.541483 0 22.270742 22.270742 0 1 0-44.541483 0Z" fill="#ECF0F1" /><path d="M228.497432 512l-25.600947 25.600946a30.615174 30.615174 0 0 1-43.292656 0l-114.210873-114.210872a30.615174 30.615174 0 0 1 0-43.292657l25.600946-25.600946 157.50353 157.503529zM512 228.497432l25.600946-25.600947a30.615174 30.615174 0 0 0 0-43.292656l-114.210872-114.210873a30.615174 30.615174 0 0 0-43.292657 0l-25.600946 25.600946 157.503529 157.50353zM669.503529 953.006098l-25.600946 25.600946a30.615174 30.615174 0 0 1-43.292657 0l-114.210872-114.210873a30.615174 30.615174 0 0 1 0-43.292656l25.600946-25.600947 157.503529 157.50353zM953.006098 669.503529l25.600946-25.600946a30.615174 30.615174 0 0 0 0-43.292657l-114.210873-114.210872a30.615174 30.615174 0 0 0-43.292656 0l-25.600947 25.600946 157.50353 157.503529z" fill="#38454F" /></svg>