<?xml version="1.0" standalone="no"?><!DOCTYPE svg PUBLIC "-//W3C//DTD SVG 1.1//EN" "http://www.w3.org/Graphics/SVG/1.1/DTD/svg11.dtd"><svg class="icon" width="200px" height="199.80px" viewBox="0 0 1025 1024" version="1.1" xmlns="http://www.w3.org/2000/svg"><path fill="#515151" d="M285.767442 887.920266c-3.401993 0-10.20598 0-13.607974-3.401994l-136.079734-136.079734c-6.803987-6.803987-6.803987-17.009967 0-23.813953s17.009967-6.803987 23.813954 0l136.079734 136.079734c6.803987 6.803987 6.803987 17.009967 0 23.813953 0 0-3.401993 3.401993-10.20598 3.401994zM864.106312 309.581395c-3.401993 0-10.20598 0-13.607973-3.401993l-136.079734-136.079734c-6.803987-6.803987-6.803987-17.009967 0-23.813954s17.009967-6.803987 23.813953 0l136.079734 136.079735c6.803987 6.803987 6.803987 17.009967 0 23.813953 0 0-3.401993 3.401993-10.20598 3.401993zM421.847176 819.880399c-3.401993 0-10.20598 0-13.607973-3.401994l-204.119602-204.119601c-6.803987-6.803987-6.803987-17.009967 0-23.813954s17.009967-6.803987 23.813954 0l204.119601 204.119602c6.803987 6.803987 6.803987 17.009967 0 23.813953 0 0-3.401993 3.401993-10.20598 3.401994zM813.076412 428.651163c-3.401993 0-10.20598 0-13.607973-3.401994l-204.119602-204.119601c-6.803987-6.803987-6.803987-17.009967 0-23.813953s17.009967-6.803987 23.813954 0l204.119601 204.119601c6.803987 6.803987 6.803987 17.009967 0 23.813953 0 0-3.401993 3.401993-10.20598 3.401994z"  /><path fill="#515151" d="M190.511628 1024c-47.627907 0-95.255814-20.41196-132.677741-57.833887S0 877.714286 0 830.086379s20.41196-91.853821 57.833887-129.275748L142.883721 612.358804c6.803987-6.803987 17.009967-6.803987 23.813953 0s6.803987 17.009967 0 23.813953l-85.049833 85.049834c-30.61794 30.61794-47.627907 68.039867-47.627907 105.461794 0 40.82392 17.009967 81.647841 47.627907 112.265781 30.61794 30.61794 71.44186 47.627907 108.863787 47.627907s78.245847-17.009967 108.863787-47.627907l85.049834-85.049834c6.803987-6.803987 17.009967-6.803987 23.813954 0s6.803987 17.009967 0 23.813954l-85.049834 85.049834c-37.421927 40.82392-85.049834 61.23588-132.677741 61.23588zM241.541528 554.524917c-3.401993 0-10.20598-3.401993-13.607973-3.401993-6.803987-6.803987-6.803987-17.009967 0-23.813954l302.777408-295.973422c6.803987-6.803987 17.009967-6.803987 23.813954 0 6.803987 6.803987 6.803987 17.009967 0 23.813954l-302.777409 295.973422c-3.401993 0-6.803987 3.401993-10.20598 3.401993zM870.910299 411.641196c-3.401993 0-10.20598 0-13.607973-3.401993-6.803987-6.803987-6.803987-17.009967 0-23.813954l85.049833-85.049834c61.23588-61.23588 61.23588-159.893688 0-217.727574-61.23588-61.23588-159.893688-61.23588-217.727574 0l-85.049834 85.049833c-6.803987 6.803987-17.009967 6.803987-23.813954 0s-6.803987-17.009967 0-23.813953l85.049834-85.049834c74.843854-74.843854 193.913621-74.843854 265.355482 0 74.843854 74.843854 74.843854 193.913621 0 265.355482L881.116279 408.239203c-3.401993 0-6.803987 3.401993-10.20598 3.401993zM483.083056 796.066445c-3.401993 0-10.20598 0-13.607973-3.401993-6.803987-6.803987-6.803987-17.009967 0-23.813954l299.375415-299.375415c6.803987-6.803987 17.009967-6.803987 23.813954 0s6.803987 17.009967 0 23.813954l-299.375415 299.375415c0 3.401993-6.803987 3.401993-10.205981 3.401993z"  /><path fill="#515151" d="M166.697674 649.780731c-3.401993 0-10.20598 0-13.607973-3.401993l-68.039867-68.039868c-6.803987-6.803987-6.803987-17.009967 0-23.813953L170.099668 469.475083c6.803987-6.803987 17.009967-6.803987 23.813953 0l68.039867 68.039867c6.803987 6.803987 6.803987 17.009967 0 23.813954L176.903654 646.378738s-3.401993 3.401993-10.20598 3.401993z m-40.82392-85.049834L170.099668 608.956811l61.23588-61.235881-44.225913-44.225913-61.235881 61.23588zM455.86711 938.950166c-3.401993 0-10.20598 0-13.607974-3.401993l-68.039867-68.039867c-6.803987-6.803987-6.803987-17.009967 0-23.813954l85.049834-85.049834c6.803987-6.803987 17.009967-6.803987 23.813953 0l68.039868 68.039867c6.803987 6.803987 6.803987 17.009967 0 23.813954l-85.049834 85.049834s-3.401993 3.401993-10.20598 3.401993z m-40.823921-85.049834l44.225914 44.225914 61.23588-61.235881-44.225913-44.225913-61.235881 61.23588zM557.92691 275.561462c-3.401993 0-10.20598 0-13.607973-3.401994l-68.039867-68.039867c-3.401993-3.401993-3.401993-6.803987-3.401994-13.607973s3.401993-10.20598 3.401994-13.607974l85.049834-85.049833c6.803987-6.803987 17.009967-6.803987 23.813953 0l68.039867 68.039867c3.401993 3.401993 3.401993 6.803987 3.401994 13.607973s-3.401993 10.20598-3.401994 13.607974L568.13289 272.159468s-3.401993 3.401993-10.20598 3.401994z m-44.225913-85.049834l44.225913 44.225914 61.235881-61.235881-44.225914-44.225913-61.23588 61.23588zM830.086379 547.72093c-3.401993 0-10.20598-3.401993-13.607974-3.401993l-68.039867-68.039867c-6.803987-6.803987-6.803987-17.009967 0-23.813954l85.049834-85.049834c3.401993-3.401993 6.803987-6.803987 13.607974-3.401993 3.401993 0 10.20598 3.401993 13.607973 3.401993l68.039867 68.039868c6.803987 6.803987 6.803987 17.009967 0 23.813953L843.694352 544.318937c-3.401993 0-6.803987 3.401993-13.607973 3.401993z m-40.823921-85.049834l44.225914 44.225914 61.23588-61.23588-44.225913-44.225914-61.235881 61.23588z"  /></svg>