<?xml version="1.0" standalone="no"?><!DOCTYPE svg PUBLIC "-//W3C//DTD SVG 1.1//EN" "http://www.w3.org/Graphics/SVG/1.1/DTD/svg11.dtd"><svg class="icon" width="200px" height="200.00px" viewBox="0 0 1024 1024" version="1.1" xmlns="http://www.w3.org/2000/svg"><path d="M862.5 269.1l-54.4-56.8L691.5 89.1c-23.3-21.7-47.1-27.1-73-27.1H192.6c-29.8 0-53.1 24.4-53.1 55.5v788.3c0 29.8 23.4 56.3 53.2 56.3h638.6c29.8 0 53.2-24.4 53.2-54.1V343.2c0-24.3-7.8-55.2-22-74.1z" fill="#00A2E6" /><path d="M671.6 174.5V287H778L671.6 174.5zM664.7 543.9L386.2 373.7c-21.4-13-42.8-4.3-42.8 21.3v340.5c0 25.6 21.5 34.3 42.8 21.3l278.5-170.3c21.3-13 21.3-29.6 0-42.6z" fill="#FFFFFF" /></svg>